HIERARCHY
ROOT Hips
{
	OFFSET 0.000000 0.000000 0.000000
	CHANNELS 6 Xposition Yposition Zposition Xrotation Yrotation Zrotation
	JOINT Chest
	{
		OFFSET 0.000000 0.009282 11.569106
		CHANNELS 3 Xrotation Yrotation Zrotation
		JOINT Chest2
		{
			OFFSET 0.000000 -0.016863 9.269641
			CHANNELS 3 Xrotation Yrotation Zrotation
			JOINT Chest3
			{
				OFFSET 0.000000 0.000000 8.374491
				CHANNELS 3 Xrotation Yrotation Zrotation
				JOINT Chest4
				{
					OFFSET 0.000000 0.000000 8.374493
					CHANNELS 3 Xrotation Yrotation Zrotation
					JOINT Neck
					{
						OFFSET 0.000000 -0.000001 12.152554
						CHANNELS 3 Xrotation Yrotation Zrotation
						JOINT Head
						{
							OFFSET 0.000000 -0.040100 7.802319
							CHANNELS 3 Xrotation Yrotation Zrotation
							End Site
							{
								OFFSET 0.000000 -0.020946 14.853096
							}
						}
					}
					JOINT RightCollar
					{
						OFFSET -2.894404 0.000000 6.791374
						CHANNELS 3 Xrotation Yrotation Zrotation
						JOINT RightShoulder
						{
							OFFSET -13.574684 0.000000 0.000000
							CHANNELS 3 Xrotation Yrotation Zrotation
							JOINT RightElbow
							{
								OFFSET -23.923903 0.000000 0.000000
								CHANNELS 3 Xrotation Yrotation Zrotation
								JOINT RightWrist
								{
									OFFSET -19.846718 -0.012765 0.000000
									CHANNELS 3 Xrotation Yrotation Zrotation
									End Site
									{
										OFFSET -14.973145 0.000000 0.000000
									}
								}
							}
						}
					}
					JOINT LeftCollar
					{
						OFFSET 2.894404 0.000000 6.791374
						CHANNELS 3 Xrotation Yrotation Zrotation
						JOINT LeftShoulder
						{
							OFFSET 13.574684 0.000000 0.000000
							CHANNELS 3 Xrotation Yrotation Zrotation
							JOINT LeftElbow
							{
								OFFSET 23.923903 0.000000 0.000000
								CHANNELS 3 Xrotation Yrotation Zrotation
								JOINT LeftWrist
								{
									OFFSET 19.846718 -0.012765 0.000000
									CHANNELS 3 Xrotation Yrotation Zrotation
									End Site
									{
										OFFSET 14.973145 0.000000 0.000000
									}
								}
							}
						}
					}
				}
			}
		}
	}
	JOINT RightHip
	{
		OFFSET -9.469263 -0.004642 0.045487
		CHANNELS 3 Xrotation Yrotation Zrotation
		JOINT RightKnee
		{
			OFFSET 0.000000 -0.002666 -40.478676
			CHANNELS 3 Xrotation Yrotation Zrotation
			JOINT RightAnkle
			{
				OFFSET 0.000000 -0.049110 -35.224068
				CHANNELS 3 Xrotation Yrotation Zrotation
				JOINT RightToe
				{
					OFFSET 0.000000 -12.539530 -6.151390
					CHANNELS 3 Xrotation Yrotation Zrotation
					End Site
					{
						OFFSET 0.000000 -5.044995 -1.291870
					}
				}
			}
		}
	}
	JOINT LeftHip
	{
		OFFSET 9.469263 -0.004642 0.045487
		CHANNELS 3 Xrotation Yrotation Zrotation
		JOINT LeftKnee
		{
			OFFSET 0.000000 -0.002666 -40.478676
			CHANNELS 3 Xrotation Yrotation Zrotation
			JOINT LeftAnkle
			{
				OFFSET 0.000000 -0.049110 -35.224068
				CHANNELS 3 Xrotation Yrotation Zrotation
				JOINT LeftToe
				{
					OFFSET 0.000000 -12.539530 -6.151390
					CHANNELS 3 Xrotation Yrotation Zrotation
					End Site
					{
						OFFSET 0.000000 -5.044995 -1.291870
					}
				}
			}
		}
	}
}
MOTION
Frames: 15
Frame Time: 0.016667
-11.476106 -6.576543 83.349144 0.629523 3.710027 -104.429733 5.687945 0.826693 1.709370 2.528701 0.353984 0.786703 2.528700 0.353984 0.786702 1.896980 0.262238 0.591501 14.512236 -1.490259 -4.713837 -9.188091 -0.911324 -9.134395 -15.221012 1.807360 -0.188337 -44.834396 -48.960418 41.663567 8.014004 18.891600 45.023473 16.615721 -8.885377 -11.018745 -6.634374 -0.726780 -11.536612 -55.075726 44.866891 -38.122609 -0.690506 -5.500144 -54.876865 44.664533 2.596179 19.408937 5.326588 1.260513 -1.891716 3.907582 -2.571652 -10.642575 -4.361758 0.759943 1.188420 0.188725 -0.011361 -0.035315 6.307314 0.754380 1.920757 2.345099 -0.317951 0.576993 -3.202099 3.312327 -1.556813 0.270329 0.157642 0.034909 
-11.347267 -6.605952 83.344002 0.673941 3.791830 -104.503779 5.663659 0.816524 1.722192 2.517653 0.350050 0.792312 2.517653 0.350050 0.792312 1.888691 0.259280 0.595686 14.668074 -1.471021 -4.718987 -8.897489 -0.885085 -9.135206 -15.150116 1.612773 -0.210948 -44.156948 -49.325929 41.517739 8.859250 20.300121 45.526045 17.301105 -4.017283 -10.872452 -6.246479 -0.629391 -11.645720 -55.135790 45.302483 -37.506140 -0.097069 -5.927646 -55.354657 45.957006 -2.566589 18.932905 5.294956 1.232421 -1.805777 3.936233 -2.555681 -10.646066 -4.301320 0.798364 1.174939 0.183457 -0.023104 -0.035792 6.312462 0.740258 1.947180 2.345241 -0.314903 0.573540 -3.194092 3.261888 -1.513637 0.273478 0.158238 0.036016 
-11.217514 -6.640126 83.338913 0.718979 3.865507 -104.584061 5.622746 0.802865 1.738201 2.499246 0.344520 0.799133 2.499245 0.344520 0.799133 1.874882 0.255128 0.600771 14.810910 -1.443482 -4.718412 -8.630695 -0.845031 -9.122650 -14.999502 1.422671 -0.243064 -43.572611 -49.795897 41.378041 9.639708 21.585092 45.872715 17.732165 0.549470 -10.553823 -5.832827 -0.502581 -11.753874 -54.909742 45.649562 -37.087227 0.382340 -6.755349 -55.649475 47.268386 -7.477484 18.348134 5.251635 1.203406 -1.733727 3.968406 -2.536583 -10.639210 -4.236998 0.835743 1.162547 0.177690 -0.034268 -0.036085 6.313430 0.727872 1.981509 2.337822 -0.312520 0.546951 -3.186626 3.201416 -1.445411 0.278233 0.163497 0.036160 
-11.089476 -6.678635 83.333839 0.764784 3.937009 -104.672109 5.598147 0.796751 1.776562 2.488072 0.342022 0.816438 2.488071 0.342022 0.816437 1.866509 0.253198 0.613728 14.916488 -1.428646 -4.718903 -8.433813 -0.825094 -9.117167 -14.606716 1.240017 -0.294311 -43.536777 -50.353452 41.007691 10.482997 22.481814 46.111977 17.868164 5.556583 -10.037018 -5.613428 -0.328780 -11.886990 -54.392594 45.963177 -36.774046 0.781237 -7.547642 -55.711070 48.199597 -12.391027 17.669889 5.204461 1.180510 -1.674497 4.005084 -2.518419 -10.629343 -4.172762 0.865959 1.184134 0.172405 -0.042099 -0.035287 6.312612 0.719323 2.016247 2.333740 -0.311931 0.517723 -3.183234 3.129256 -1.389561 0.281888 0.174867 0.034822 
-10.963935 -6.718324 83.328568 0.807021 4.009773 -104.764624 5.576038 0.788896 1.839793 2.478074 0.339074 0.845498 2.478075 0.339074 0.845497 1.859023 0.250883 0.635510 15.003713 -1.419716 -4.726066 -8.271125 -0.812143 -9.126187 -14.192089 1.045427 -0.329732 -43.590445 -50.857725 40.493319 11.355180 23.121659 46.268818 17.503012 11.856887 -8.958270 -5.423233 -0.172233 -12.038176 -54.023764 46.358287 -36.285841 1.188134 -7.849537 -55.595629 48.667564 -17.912646 16.814874 5.163934 1.159708 -1.630306 4.031224 -2.497306 -10.612815 -4.104988 0.893682 1.203853 0.169309 -0.046367 -0.034300 6.310358 0.716749 2.033247 2.336074 -0.307544 0.523999 -3.180593 3.049269 -1.329701 0.281241 0.187334 0.033725 
-10.841134 -6.759749 83.323639 0.842992 4.090867 -104.853861 5.540004 0.767351 1.866244 2.461989 0.330326 0.858360 2.461991 0.330326 0.858362 1.846957 0.244292 0.645115 15.098306 -1.387967 -4.701005 -8.094551 -0.770204 -9.068049 -14.096007 0.841098 -0.268471 -43.036739 -51.231289 40.066259 12.015048 23.681439 46.423730 16.450815 19.033097 -7.002640 -5.243446 0.021432 -12.116219 -53.773581 46.774399 -35.630778 1.588475 -7.722555 -55.264304 48.985905 -24.278476 15.499405 5.134529 1.154630 -1.615890 4.053568 -2.484530 -10.579832 -4.036886 0.921084 1.233513 0.166895 -0.048250 -0.034360 6.311783 0.721319 2.013906 2.347208 -0.302569 0.562609 -3.176046 2.971260 -1.284156 0.274117 0.196729 0.032237 
-10.719718 -6.802377 83.319916 0.875947 4.183756 -104.936697 5.504362 0.748748 1.897132 2.446753 0.322628 0.872610 2.446753 0.322628 0.872612 1.835525 0.238482 0.655761 15.197272 -1.358023 -4.669758 -7.910253 -0.734038 -8.999386 -14.047998 0.657084 -0.234121 -42.156781 -51.537756 39.783974 12.402003 24.211368 46.601708 14.712081 25.957237 -4.299959 -5.050131 0.204865 -12.175105 -53.516144 47.223993 -34.980325 1.889988 -7.545007 -54.870871 49.102838 -30.549906 13.837484 5.115336 1.156719 -1.611632 4.079051 -2.474388 -10.541743 -3.966579 0.948673 1.259278 0.161172 -0.049075 -0.035527 6.325304 0.731600 1.982720 2.352441 -0.297531 0.591196 -3.158055 2.901189 -1.232956 0.260205 0.196848 0.032065 
-10.597820 -6.842696 83.316666 0.904717 4.280425 -105.010566 5.474879 0.734090 1.916070 2.434142 0.317436 0.881198 2.434142 0.317436 0.881197 1.826064 0.234572 0.662173 15.287131 -1.332191 -4.624100 -7.743740 -0.709940 -8.906133 -13.590968 0.517517 -0.157822 -41.759575 -51.875956 39.445808 12.711201 24.570294 46.735242 12.368165 32.171434 -1.044308 -4.833470 0.433679 -12.269549 -53.096367 47.591355 -34.485434 2.015317 -7.626890 -54.621719 49.482480 -34.558138 12.696561 5.099838 1.157867 -1.593682 4.104262 -2.459142 -10.521489 -3.897222 0.979425 1.279058 0.156085 -0.053538 -0.034057 6.339484 0.742745 1.965286 2.358406 -0.292110 0.587267 -3.133946 2.840977 -1.163685 0.244254 0.190169 0.031687 
-10.475220 -6.884248 83.312386 0.934955 4.367361 -105.085882 5.463034 0.734503 1.951892 2.429123 0.317317 0.897231 2.429125 0.317317 0.897231 1.822309 0.234427 0.674198 15.350403 -1.325365 -4.578728 -7.627832 -0.718403 -8.820658 -13.122086 0.385690 -0.187273 -41.693087 -52.455569 38.941781 13.218254 24.801281 46.780297 9.535289 37.656739 2.708100 -4.530797 0.637775 -12.468432 -52.824803 47.926017 -34.017429 2.105328 -7.750470 -54.318678 49.111761 -37.410971 11.767587 5.070823 1.156911 -1.549254 4.134789 -2.447134 -10.517225 -3.827612 1.012306 1.297539 0.150375 -0.058687 -0.032885 6.343348 0.753792 1.972703 2.366939 -0.295156 0.584030 -3.111254 2.784865 -1.126523 0.232484 0.185855 0.030227 
-10.351377 -6.926111 83.306625 0.969539 4.451878 -105.165358 5.450354 0.729851 1.999277 2.423656 0.314748 0.917148 2.423656 0.314748 0.917148 1.818214 0.232429 0.689120 15.408444 -1.319239 -4.534251 -7.521596 -0.727394 -8.737091 -12.729737 0.296988 -0.325365 -41.605981 -53.283914 38.460686 13.798597 25.026079 46.765240 6.729975 41.948935 6.451468 -4.354696 0.867069 -12.616627 -52.537457 48.405646 -33.480368 2.192291 -7.351520 -53.804822 47.366921 -41.032624 9.942061 5.031113 1.156449 -1.475849 4.182232 -2.444817 -10.517355 -3.765377 1.046845 1.301625 0.144875 -0.061784 -0.032473 6.350104 0.761101 2.017065 2.365884 -0.296171 0.560350 -3.088320 2.721367 -1.092610 0.227582 0.185980 0.030007 
-10.227498 -6.968503 83.300240 1.007760 4.545554 -105.235907 5.437863 0.719640 2.045117 2.418283 0.310067 0.936692 2.418284 0.310067 0.936693 1.814189 0.228848 0.703758 15.483914 -1.304732 -4.489030 -7.382477 -0.722477 -8.648941 -12.524047 0.175312 -0.427743 -41.221162 -54.012415 38.062718 14.055664 24.984900 46.851023 4.510132 44.811836 9.588623 -4.355753 1.067122 -12.647842 -52.132850 49.073912 -32.846188 2.218300 -6.507367 -53.066489 45.339895 -45.899237 6.965869 5.004793 1.153577 -1.395381 4.223504 -2.443291 -10.535589 -3.700863 1.078707 1.301500 0.140378 -0.062092 -0.031450 6.365699 0.768477 2.050803 2.365260 -0.300503 0.522814 -3.068327 2.654131 -1.039546 0.225911 0.189563 0.029082 
-10.105478 -7.006412 83.293655 1.046394 4.642383 -105.290467 5.432456 0.695091 2.049476 2.415383 0.299952 0.939829 2.415384 0.299952 0.939826 1.812002 0.221254 0.706068 15.585476 -1.265148 -4.421819 -7.194190 -0.681558 -8.511439 -12.372911 0.071170 -0.418638 -40.585930 -54.596656 37.840112 13.939693 24.686962 46.930691 2.674690 46.690869 12.300761 -4.487415 1.302147 -12.599142 -51.476288 49.687499 -32.270588 2.205957 -6.007231 -52.214822 43.488829 -51.115561 3.191802 4.998058 1.138490 -1.357380 4.241273 -2.422457 -10.544321 -3.627104 1.098649 1.313148 0.137195 -0.057805 -0.028960 6.377027 0.774803 2.039243 2.380200 -0.307273 0.512694 -3.056951 2.589249 -0.973510 0.224824 0.193377 0.026547 
-9.986978 -7.040221 83.287231 1.085944 4.733436 -105.330089 5.405973 0.662135 2.018913 2.402665 0.285663 0.927959 2.402665 0.285663 0.927959 1.802433 0.210603 0.697104 15.730091 -1.209489 -4.334129 -6.925851 -0.621311 -8.330569 -12.141388 -0.009148 -0.350243 -39.905568 -55.181949 37.682027 13.780106 24.319343 46.893627 0.722792 48.365232 15.094394 -4.477465 1.528875 -12.587193 -50.791312 50.112336 -31.698181 2.248265 -6.314722 -51.501163 41.813493 -55.283664 -0.295148 4.998292 1.117149 -1.357461 4.245502 -2.396223 -10.542090 -3.546604 1.108747 1.343792 0.131937 -0.047992 -0.025854 6.381875 0.776626 2.015916 2.402003 -0.321018 0.511725 -3.049540 2.536773 -0.929086 0.223485 0.193320 0.022024 
-9.870468 -7.074925 83.281891 1.129604 4.820055 -105.364274 5.361061 0.636228 2.000449 2.382367 0.272889 0.919630 2.382367 0.272888 0.919630 1.787187 0.201085 0.690796 15.903109 -1.170829 -4.249266 -6.605775 -0.592306 -8.160987 -11.942149 -0.067581 -0.379816 -39.232251 -55.893535 37.464349 13.876733 24.117097 46.696187 -1.727446 50.020419 18.242868 -4.240453 1.757557 -12.681601 -50.285031 50.379899 -31.091339 2.420652 -6.960245 -51.062300 40.260830 -57.749297 -2.658736 4.987333 1.100010 -1.349733 4.268817 -2.387355 -10.551007 -3.468814 1.116171 1.370768 0.120036 -0.034156 -0.024865 6.382098 0.765110 2.011537 2.427917 -0.316779 0.496229 -3.043150 2.482581 -0.887441 0.221843 0.186387 0.018602 
-9.754888 -7.109316 83.276917 1.176923 4.908164 -105.401512 5.320839 0.636644 2.000104 2.364322 0.271785 0.918522 2.364322 0.271785 0.918523 1.773652 0.200290 0.689956 16.071744 -1.169045 -4.167432 -6.295916 -0.628618 -8.010304 -11.614302 -0.146643 -0.437405 -38.950619 -56.682548 37.013837 14.215015 24.046219 46.414899 -4.489488 51.466701 21.618952 -3.940430 1.970031 -12.816898 -50.081474 50.657201 -30.399953 2.699927 -7.073277 -50.725718 38.316005 -59.034937 -4.557049 4.972131 1.089605 -1.317146 4.306159 -2.396717 -10.576047 -3.397908 1.130074 1.408510 0.108002 -0.023574 -0.022997 6.382298 0.746981 2.029742 2.462255 -0.311635 0.481716 -3.040963 2.439728 -0.870840 0.220485 0.174518 0.016696 
